<svg width="48" height="48" viewBox="0 0 48 48" fill="none" xmlns="http://www.w3.org/2000/svg">
<rect width="48" height="48" rx="24" fill="#EDEDED"/>
<mask id="mask0_2148_1220" style="mask-type:alpha" maskUnits="userSpaceOnUse" x="8" y="8" width="32" height="32">
<rect x="8" y="8" width="32" height="32" fill="#EDEDED"/>
</mask>
<g mask="url(#mask0_2148_1220)">
<path d="M22.4001 24.4222L27.6001 29.3813C27.8445 29.6144 27.9667 29.9111 27.9667 30.2714C27.9667 30.6317 27.8445 30.9284 27.6001 31.1615C27.3556 31.3946 27.0445 31.5112 26.6667 31.5112C26.289 31.5112 25.9778 31.3946 25.7334 31.1615L19.6001 25.3123C19.4667 25.1852 19.3723 25.0474 19.3167 24.8991C19.2612 24.7507 19.2334 24.5918 19.2334 24.4222C19.2334 24.2527 19.2612 24.0938 19.3167 23.9454C19.3723 23.7971 19.4667 23.6593 19.6001 23.5322L25.7334 17.683C25.9778 17.4499 26.289 17.3333 26.6667 17.3333C27.0445 17.3333 27.3556 17.4499 27.6001 17.683C27.8445 17.9161 27.9667 18.2128 27.9667 18.5731C27.9667 18.9334 27.8445 19.2301 27.6001 19.4632L22.4001 24.4222Z" fill="#343434"/>
</g>
</svg>
