<?xml version="1.0" encoding="UTF-8"?>
<svg viewBox="0 0 56 58" xmlns="http://www.w3.org/2000/svg">
<path d="m1 49.862c0-0.5712 0.1316-1.0836 0.3948-1.5372 0.2688-0.4536 0.63-0.8064 1.0836-1.0584 0.4592-0.2576 0.9604-0.3864 1.5036-0.3864 0.6216 0 1.1732 0.154 1.6548 0.462 0.4872 0.3024 0.84 0.7336 1.0584 1.2936h-1.1508c-0.1512-0.308-0.3612-0.5376-0.63-0.6888s-0.5796-0.2268-0.9324-0.2268c-0.3864 0-0.7308 0.0868-1.0332 0.2604s-0.5404 0.4228-0.714 0.7476c-0.168 0.3248-0.252 0.7028-0.252 1.134s0.084 0.8092 0.252 1.134c0.1736 0.3248 0.4116 0.5768 0.714 0.756 0.3024 0.1736 0.6468 0.2604 1.0332 0.2604 0.3528 0 0.6636-0.0756 0.9324-0.2268s0.4788-0.3808 0.63-0.6888h1.1508c-0.2184 0.56-0.5712 0.9912-1.0584 1.2936-0.4816 0.3024-1.0332 0.4536-1.6548 0.4536-0.5488 0-1.05-0.126-1.5036-0.378-0.4536-0.2576-0.8148-0.6132-1.0836-1.0668-0.2632-0.4536-0.3948-0.966-0.3948-1.5372z" fill="#343434"/>
<path d="m9.8237 52.869c-0.4368 0-0.83161-0.098-1.1844-0.294-0.3528-0.2016-0.63-0.4816-0.8316-0.84-0.2016-0.364-0.3024-0.784-0.3024-1.26 0-0.4704 0.1036-0.8876 0.3108-1.2516s0.49-0.644 0.8484-0.84 0.75881-0.294 1.2012-0.294c0.44243 0 0.84283 0.098 1.2012 0.294s0.6412 0.476 0.8484 0.84 0.3108 0.7812 0.3108 1.2516-0.1064 0.8876-0.3192 1.2516-0.504 0.6468-0.8736 0.8484c-0.364 0.196-0.7672 0.294-1.2096 0.294zm0-0.8316c0.24642 0 0.47602-0.0588 0.68882-0.1764 0.2184-0.1176 0.3948-0.294 0.5292-0.5292s0.2016-0.5208 0.2016-0.8568-0.0644-0.6188-0.1932-0.8484c-0.1288-0.2352-0.2996-0.4116-0.5124-0.5292s-0.4424-0.1764-0.68882-0.1764c-0.2464 0-0.476 0.0588-0.6888 0.1764-0.2072 0.1176-0.37241 0.294-0.49561 0.5292-0.1232 0.2296-0.1848 0.5124-0.1848 0.8484 0 0.4984 0.12601 0.8848 0.37801 1.1592 0.25759 0.2688 0.5796 0.4032 0.966 0.4032z" fill="#343434"/>
<path d="m15.18 52.869c-0.4368 0-0.8316-0.098-1.1844-0.294-0.3528-0.2016-0.63-0.4816-0.8316-0.84-0.2016-0.364-0.3024-0.784-0.3024-1.26 0-0.4704 0.1036-0.8876 0.3108-1.2516s0.49-0.644 0.8484-0.84 0.7588-0.294 1.2012-0.294 0.8428 0.098 1.2012 0.294 0.6412 0.476 0.8484 0.84 0.3108 0.7812 0.3108 1.2516-0.1064 0.8876-0.3192 1.2516-0.504 0.6468-0.8736 0.8484c-0.364 0.196-0.7672 0.294-1.2096 0.294zm0-0.8316c0.2464 0 0.476-0.0588 0.6888-0.1764 0.2184-0.1176 0.3948-0.294 0.5292-0.5292s0.2016-0.5208 0.2016-0.8568-0.0644-0.6188-0.1932-0.8484c-0.1288-0.2352-0.2996-0.4116-0.5124-0.5292s-0.4424-0.1764-0.6888-0.1764-0.476 0.0588-0.6888 0.1764c-0.2072 0.1176-0.3724 0.294-0.4956 0.5292-0.1232 0.2296-0.1848 0.5124-0.1848 0.8484 0 0.4984 0.126 0.8848 0.378 1.1592 0.2576 0.2688 0.5796 0.4032 0.966 0.4032z" fill="#343434"/>
<path d="m20.361 50.484 2.1336 2.31h-1.2936l-1.7136-1.9908v1.9908h-0.9576v-6.216h0.9576v3.612l1.68-2.0244h1.3272l-2.1336 2.3184z" fill="#343434"/>
<path d="m24.86 52.869c-0.364 0-0.6916-0.0644-0.9828-0.1932-0.2856-0.1344-0.5124-0.3136-0.6804-0.5376-0.168-0.2296-0.2576-0.4844-0.2688-0.7644h0.9912c0.0168 0.196 0.1092 0.3612 0.2772 0.4956 0.1736 0.1288 0.3892 0.1932 0.6468 0.1932 0.2688 0 0.476-0.0504 0.6216-0.1512 0.1512-0.1064 0.2268-0.2408 0.2268-0.4032 0-0.1736-0.084-0.3024-0.252-0.3864-0.1624-0.084-0.4228-0.1764-0.7812-0.2772-0.3472-0.0952-0.63-0.1876-0.8484-0.2772s-0.4088-0.2268-0.5712-0.4116c-0.1568-0.1848-0.2352-0.4284-0.2352-0.7308 0-0.2464 0.0728-0.4704 0.2184-0.672 0.1456-0.2072 0.3528-0.3696 0.6216-0.4872 0.2744-0.1176 0.588-0.1764 0.9408-0.1764 0.5264 0 0.9492 0.1344 1.2684 0.4032 0.3248 0.2632 0.4984 0.6244 0.5208 1.0836h-0.9576c-0.0168-0.2072-0.1008-0.3724-0.252-0.4956s-0.3556-0.1848-0.6132-0.1848c-0.252 0-0.4452 0.0476-0.5796 0.1428s-0.2016 0.2212-0.2016 0.378c0 0.1232 0.0448 0.2268 0.1344 0.3108s0.1988 0.1512 0.3276 0.2016c0.1288 0.0448 0.3192 0.1036 0.5712 0.1764 0.336 0.0896 0.6104 0.182 0.8232 0.2772 0.2184 0.0896 0.406 0.224 0.5628 0.4032s0.238 0.4172 0.2436 0.714c0 0.2632-0.0728 0.4984-0.2184 0.7056s-0.3528 0.3696-0.6216 0.4872c-0.2632 0.1176-0.574 0.1764-0.9324 0.1764z" fill="#343434"/>
<path d="m27.348 49.862c0-0.5712 0.1316-1.0836 0.3948-1.5372 0.2688-0.4536 0.63-0.8064 1.0836-1.0584 0.4592-0.2576 0.9604-0.3864 1.5036-0.3864 0.6216 0 1.1732 0.154 1.6548 0.462 0.4872 0.3024 0.84 0.7336 1.0584 1.2936h-1.1508c-0.1512-0.308-0.3612-0.5376-0.63-0.6888s-0.5796-0.2268-0.9324-0.2268c-0.3864 0-0.7308 0.0868-1.0332 0.2604s-0.5404 0.4228-0.714 0.7476c-0.168 0.3248-0.252 0.7028-0.252 1.134s0.084 0.8092 0.252 1.134c0.1736 0.3248 0.4116 0.5768 0.714 0.756 0.3024 0.1736 0.6468 0.2604 1.0332 0.2604 0.3528 0 0.6636-0.0756 0.9324-0.2268s0.4788-0.3808 0.63-0.6888h1.1508c-0.2184 0.56-0.5712 0.9912-1.0584 1.2936-0.4816 0.3024-1.0332 0.4536-1.6548 0.4536-0.5488 0-1.05-0.126-1.5036-0.378-0.4536-0.2576-0.8148-0.6132-1.0836-1.0668-0.2632-0.4536-0.3948-0.966-0.3948-1.5372z" fill="#343434"/>
<path d="m36.172 52.869c-0.4368 0-0.8316-0.098-1.1844-0.294-0.3528-0.2016-0.63-0.4816-0.8316-0.84-0.2016-0.364-0.3024-0.784-0.3024-1.26 0-0.4704 0.1036-0.8876 0.3108-1.2516s0.49-0.644 0.8484-0.84 0.7588-0.294 1.2012-0.294 0.8428 0.098 1.2012 0.294 0.6412 0.476 0.8484 0.84 0.3108 0.7812 0.3108 1.2516-0.1064 0.8876-0.3192 1.2516-0.504 0.6468-0.8736 0.8484c-0.364 0.196-0.7672 0.294-1.2096 0.294zm0-0.8316c0.2464 0 0.476-0.0588 0.6888-0.1764 0.2184-0.1176 0.3948-0.294 0.5292-0.5292s0.2016-0.5208 0.2016-0.8568-0.0644-0.6188-0.1932-0.8484c-0.1288-0.2352-0.2996-0.4116-0.5124-0.5292s-0.4424-0.1764-0.6888-0.1764-0.476 0.0588-0.6888 0.1764c-0.2072 0.1176-0.3724 0.294-0.4956 0.5292-0.1232 0.2296-0.1848 0.5124-0.1848 0.8484 0 0.4984 0.126 0.8848 0.378 1.1592 0.2576 0.2688 0.5796 0.4032 0.966 0.4032z" fill="#343434"/>
<path d="m40.479 48.837c0.14-0.2352 0.3248-0.4172 0.5544-0.546 0.2352-0.1344 0.5125-0.2016 0.8316-0.2016v0.9912h-0.2435c-0.3752 0-0.6608 0.0952-0.8568 0.2856-0.1904 0.1904-0.2857 0.5208-0.2857 0.9912v2.436h-0.9576v-4.6284h0.9576v0.672z" fill="#343434"/>
<path d="m45.08 48.09c0.364 0 0.6888 0.0756 0.9744 0.2268 0.2912 0.1512 0.518 0.3752 0.6804 0.672s0.2436 0.6552 0.2436 1.0752v2.73h-0.9492v-2.5872c0-0.4144-0.1036-0.7308-0.3108-0.9492-0.2072-0.224-0.49-0.336-0.8484-0.336s-0.644 0.112-0.8568 0.336c-0.2072 0.2184-0.3108 0.5348-0.3108 0.9492v2.5872h-0.9576v-4.6284h0.9576v0.5292c0.1568-0.1904 0.3556-0.3388 0.5964-0.4452 0.2464-0.1064 0.5068-0.1596 0.7812-0.1596z" fill="#343434"/>
<path d="m52.442 50.366c0 0.1736-0.0112 0.3304-0.0336 0.4704h-3.5364c0.028 0.3696 0.1652 0.6664 0.4116 0.8904s0.5488 0.336 0.9072 0.336c0.5152 0 0.8792-0.2156 1.092-0.6468h1.0332c-0.14 0.4256-0.3948 0.7756-0.7644 1.05-0.364 0.2688-0.8176 0.4032-1.3608 0.4032-0.4424 0-0.84-0.098-1.1928-0.294-0.3472-0.2016-0.6216-0.4816-0.8232-0.84-0.196-0.364-0.294-0.784-0.294-1.26s0.0952-0.8932 0.2856-1.2516c0.196-0.364 0.4676-0.644 0.8148-0.84 0.3528-0.196 0.756-0.294 1.2096-0.294 0.4368 0 0.826 0.0952 1.1676 0.2856s0.6076 0.4592 0.798 0.8064c0.1904 0.3416 0.2856 0.7364 0.2856 1.1844zm-0.9996-0.3024c-0.0056-0.3528-0.1316-0.6356-0.378-0.8484s-0.5516-0.3192-0.9156-0.3192c-0.3304 0-0.6132 0.1064-0.8484 0.3192-0.2352 0.2072-0.3752 0.49-0.42 0.8484h2.562z" fill="#343434"/>
<path d="m54.342 48.837c0.14-0.2352 0.3248-0.4172 0.5544-0.546 0.2352-0.1344 0.5124-0.2016 0.8316-0.2016v0.9912h-0.2436c-0.3752 0-0.6608 0.0952-0.8568 0.2856-0.1904 0.1904-0.2856 0.5208-0.2856 0.9912v2.436h-0.9576v-4.6284h0.9576v0.672z" fill="#343434"/>
<path d="m16.766 23.89c-1.4743 0-2.7275-0.516-3.7595-1.548-1.0321-1.032-1.5481-2.2852-1.5481-3.7595v-5.3076c0-0.5013 0.1696-0.9214 0.5087-1.2605s0.7592-0.5087 1.2605-0.5087h21.274c0.1475-0.973 0.5455-1.8429 1.1942-2.6095 0.6487-0.76665 1.4449-1.3122 2.3884-1.6365l6.5018-2.1672c0.4718-0.14743 0.9288-0.11794 1.3711 0.08846 0.4423 0.20641 0.7371 0.5455 0.8846 1.0173 0.1474 0.47179 0.1106 0.92882-0.1106 1.3711-0.2211 0.4423-0.5676 0.73716-1.0394 0.88459l-6.5017 2.1672c-0.3539 0.118-0.6414 0.3318-0.8625 0.6414-0.2212 0.3096-0.3317 0.656-0.3317 1.0394v6.2806c0 1.4743-0.516 2.7275-1.5481 3.7595-1.032 1.032-2.2852 1.548-3.7595 1.548h-15.923zm5.3075 8.8459v-3.5383h-10.615c-0.5012 0-0.9214-0.1696-1.2605-0.5087s-0.50865-0.7593-0.50865-1.2605c0-0.5013 0.16955-0.9215 0.50865-1.2606s0.7593-0.5086 1.2605-0.5086h10.615c0.9731 0 1.8061 0.3465 2.499 1.0394s1.0394 1.5259 1.0394 2.499v3.5383c0 0.5013-0.1696 0.9215-0.5086 1.2606-0.3391 0.3391-0.7593 0.5086-1.2606 0.5086s-0.9214-0.1695-1.2605-0.5086-0.5087-0.7593-0.5087-1.2606zm7.0768 0v-3.5383c0-0.9731 0.3464-1.8061 1.0394-2.499 0.6929-0.6929 1.5259-1.0394 2.4989-1.0394h10.615c0.5013 0 0.9215 0.1695 1.2606 0.5086s0.5086 0.7593 0.5086 1.2606c0 0.5012-0.1695 0.9214-0.5086 1.2605s-0.7593 0.5087-1.2606 0.5087h-10.615v3.5383c0 0.5013-0.1695 0.9215-0.5086 1.2606s-0.7593 0.5086-1.2606 0.5086c-0.5012 0-0.9214-0.1695-1.2605-0.5086s-0.5086-0.7593-0.5086-1.2606z" fill="#343434"/>
</svg>
